<svg xmlns="http://www.w3.org/2000/svg" version="1.1" xmlns:xlink="http://www.w3.org/1999/xlink" width="720.077720207254" height="719.4"><svg preserveAspectRatio="xMidYMid meet" viewBox="700.2590673575129 970.1999999999999 720.077720207254 719.4" xmlns="http://www.w3.org/2000/svg" version="1.0" style="max-height: 500px" width="720.077720207254" height="719.4">
 <g fill="#231f20">
  <path d="M1031 1666.9 c0 -0.5 -2.7 -0.9 -6.1 -0.9 -3.3 0 -6.8 -0.4 -7.8 -1 -1 -0.5 -4.4 -1 -7.5 -1.1 -3.1 -0.1 -5.6 -0.6 -5.6 -1.1 0 -0.4 -2.2 -0.8 -4.8 -0.8 -2.6 0 -5.2 -0.4 -5.7 -0.8 -1.4 -1.2 -13.7 -4 -19.2 -4.4 -0.7 -0.1 -1.3 -0.5 -1.3 -1 0 -0.4 -1.8 -0.8 -4 -0.8 -2.2 0 -4 -0.4 -4 -1 0 -0.5 -0.7 -1 -1.5 -1 -0.8 0 -1.5 -0.4 -1.5 -1 0 -0.5 -0.7 -0.6 -1.7 -0.3 -0.9 0.4 -1.4 0.2 -1.1 -0.3 0.4 -0.5 -0.6 -1 -2 -1.1 -3.2 -0.2 -15.6 -4.5 -16 -5.5 -0.2 -0.5 -1.5 -0.8 -2.8 -0.8 -1.4 0 -2.7 -0.6 -3 -1.4 -0.3 -0.8 -1.3 -1.2 -2.5 -0.9 -1 0.3 -1.9 0 -1.9 -0.6 0 -0.6 -0.8 -1.1 -1.8 -1.1 -1 0 -2.2 -0.4 -2.7 -0.9 -0.6 -0.4 -3.3 -1.6 -6.2 -2.6 -2.9 -1 -5 -2.2 -4.7 -2.6 0.2 -0.4 -0.6 -0.9 -1.8 -1.1 -1.3 -0.2 -2.2 -0.9 -2.1 -1.5 0.1 -0.6 -0.6 -0.9 -1.7 -0.6 -1.1 0.3 -2 0 -2 -0.6 0 -0.6 -0.6 -1.1 -1.4 -1.1 -1.3 0 -10.7 -4.7 -11.6 -5.9 -0.8 -0.9 -4.1 -2.9 -8.3 -4.8 -2.3 -1.1 -3.5 -2.3 -3.2 -3.1 0.3 -0.7 0 -1 -0.5 -0.7 -1.6 1 -3.4 -0.6 -1.9 -1.7 0.9 -0.5 0.4 -0.6 -1.3 -0.2 -1.8 0.4 -2.8 0.2 -2.8 -0.5 0 -0.6 -0.7 -1.1 -1.5 -1.1 -0.8 0 -1.5 -0.4 -1.5 -0.9 0 -0.5 -0.8 -1.2 -1.9 -1.6 -1 -0.3 -3.2 -1.8 -4.8 -3.3 -3.5 -3.3 -9.9 -8.2 -10.8 -8.2 -0.3 0 -1.5 -0.9 -2.7 -2 -1.2 -1.1 -2.8 -2 -3.5 -2 -0.7 0 -1.2 -0.4 -1.1 -0.9 0.2 -0.5 -0.1 -0.9 -0.5 -1 -1.6 -0.1 -3.8 -3.1 -3.1 -4.2 0.4 -0.8 0.3 -0.9 -0.4 -0.5 -0.7 0.4 -1.2 0.2 -1.2 -0.5 0 -0.7 -0.3 -1 -0.6 -0.7 -0.8 0.8 -7.3 -5.2 -22.7 -20.7 -18 -18.3 -19.7 -20.1 -19.7 -21.4 0 -0.6 -0.5 -1.1 -1.1 -1.1 -0.5 0 -0.8 -0.4 -0.5 -0.9 0.3 -0.5 -0.1 -1.1 -0.8 -1.4 -0.8 -0.3 -2.3 -1.8 -3.2 -3.2 -1.5 -2.3 -1.5 -2.8 -0.3 -3.7 1 -0.7 0.8 -0.8 -0.8 -0.3 -1.3 0.4 -2.3 0.2 -2.3 -0.4 0 -0.6 -1.3 -2.6 -3 -4.4 -1.6 -1.9 -3 -3.9 -3 -4.4 0 -0.5 -0.9 -1.5 -1.9 -2.2 -1.1 -0.8 -1.7 -2 -1.4 -2.8 0.3 -0.7 -0.2 -1.3 -1.2 -1.3 -0.9 0 -1.3 -0.4 -1 -1 0.3 -0.5 0.2 -1 -0.3 -1 -0.9 0 -3.7 -5 -3.4 -6.2 0.1 -0.5 -0.2 -0.8 -0.7 -0.8 -1 0 -4.1 -5.6 -4.1 -7.2 0 -0.5 -0.6 -1.6 -1.2 -2.3 -3.2 -3.5 -3.8 -4.5 -3.8 -6 0 -0.8 -0.4 -1.5 -0.9 -1.5 -0.8 0 -2.2 -3.2 -2.5 -5.5 -0.1 -0.5 -0.7 -1.4 -1.3 -1.8 -0.7 -0.4 -1.3 -1.5 -1.3 -2.2 0 -0.8 -0.4 -1.5 -1 -1.5 -0.5 0 -1 -0.9 -1 -2 0 -1.1 -0.4 -2 -0.9 -2 -1.2 0 -2 -3.5 -1.1 -5 0.6 -0.9 3.4 -1.1 11.2 -0.5 l10.5 0.7 3 6.1 c13.3 27.3 42.3 64.8 68.5 88.3 48 43.2 104.4 69.9 168.8 80 15.7 2.5 20.1 2.8 43 2.8 22.9 0 27.4 -0.3 43.5 -2.8 85.5 -13.1 159.5 -57.2 210.9 -125.8 23.2 -31.1 43.7 -72.8 52.2 -106.3 1.4 -5.5 3 -11.8 3.5 -13.9 l1.1 -3.9 8.1 0.7 c7.3 0.5 16.2 2.3 13 2.5 -0.7 0.1 -1.3 1.2 -1.3 2.5 0 1.4 -0.4 2.8 -1 3.1 -0.5 0.3 -1 2.2 -1 4.1 0 2.7 -0.5 3.7 -2.2 4.4 -1.3 0.5 -1.7 0.9 -1 0.9 1.4 0.1 1.7 4.1 0.2 4.1 -0.5 0 -1 1.8 -1 4 0 2.2 -0.4 4 -1 4 -0.5 0 -1 1.4 -1 3 0 1.7 -0.4 3.9 -1 5 -0.5 1.1 -1.5 2.9 -2 4 -0.6 1.1 -1.3 3.7 -1.6 5.7 -0.3 2.1 -1 4 -1.5 4.1 -0.5 0.2 -0.9 1.4 -0.9 2.6 0 2.6 -2.1 7.6 -3.2 7.6 -0.5 0 -0.8 1.1 -0.8 2.5 0 1.4 -0.4 2.5 -1 2.5 -0.5 0 -1 0.9 -1 2 0 1.1 -0.4 2 -1 2 -0.5 0 -1 0.6 -1 1.3 0 1.5 -4.2 10.1 -5.2 10.5 -0.5 0.2 -0.8 1.5 -0.8 2.8 0 1.3 -0.4 2.4 -0.9 2.4 -0.5 0 -1.4 1.5 -2.1 3.3 -0.8 1.7 -2 4 -2.8 5 -0.8 0.9 -1.2 1.7 -0.7 1.7 0.4 0 -0.4 1.5 -1.8 3.4 -1.5 1.8 -2.8 4 -2.9 4.7 -0.2 0.7 -0.7 1.9 -1.3 2.5 -3.4 3.9 -4.3 5.3 -4.8 7.5 -0.4 1.4 -1.8 3.8 -3.2 5.5 -1.4 1.6 -2.5 3.2 -2.5 3.7 0 0.4 -1 0.7 -2.2 0.7 -1.6 0 -1.9 0.3 -1 0.8 0.9 0.6 0.3 1.9 -2.1 4.8 -1.9 2.1 -4 5.3 -4.7 7.1 -0.8 1.7 -1.8 2.9 -2.2 2.7 -0.4 -0.3 -0.8 0.1 -0.8 0.8 0 0.8 -0.9 2 -2 2.8 -1.1 0.8 -2 1.8 -2 2.3 0 1.2 -9.9 10.7 -11.1 10.7 -0.6 0 -0.7 0.4 -0.4 1 0.3 0.5 -0.5 2.1 -1.9 3.5 -1.4 1.4 -2.2 2.5 -1.9 2.5 0.3 0 -1.4 1.8 -3.8 3.9 -2.3 2.2 -4.6 3.8 -5.1 3.5 -0.4 -0.3 -0.5 0.2 -0.2 1.1 0.5 1.1 0.2 1.4 -1.2 0.8 -1.1 -0.4 -1.5 -0.3 -1.1 0.4 0.4 0.6 -0.8 2.3 -2.5 3.7 -5 4 -5.1 4.1 -7.9 7.2 -3.1 3.5 -10.1 9.4 -11.2 9.4 -0.5 0 -0.5 0.5 -0.2 1 0.3 0.6 0.1 1 -0.5 1 -1.5 0 -14 8.9 -14 10 0 0.4 -1.5 1.5 -3.2 2.5 -6.5 3.3 -7.8 4.2 -7.1 4.8 0.3 0.4 -0.1 0.7 -0.9 0.7 -0.8 0 -2.7 0.9 -4.1 2 -1.4 1.1 -3.3 2 -4.2 2 -0.9 0 -1.4 0.4 -1.1 0.9 0.6 0.9 -5.2 4.1 -7.3 4.1 -0.6 0 -1.1 0.4 -1.1 0.8 0 0.9 -6.2 4.7 -7.2 4.4 -0.5 -0.1 -0.8 0.2 -0.8 0.7 0 0.8 -2 1.7 -5.7 2.6 -0.7 0.2 -2.6 1.3 -4.2 2.4 -1.6 1.2 -3.7 2.1 -4.6 2.1 -0.9 0 -1.3 0.5 -1 1 0.3 0.6 -0.3 1 -1.4 1 -1.2 0 -2.1 0.5 -2.1 1.1 0 0.8 -1.1 0.9 -3.2 0.5 -1.9 -0.3 -2.7 -0.2 -2 0.2 1.7 1.1 -7.1 5.7 -9.2 4.9 -1 -0.4 -1.6 -0.1 -1.6 0.7 0 0.7 -1.9 1.9 -4.2 2.6 -2.4 0.8 -4.8 1.7 -5.3 2.1 -0.6 0.5 -3 1.1 -5.3 1.5 -2.3 0.4 -4.5 1.1 -4.8 1.5 -0.3 0.5 -1.6 0.9 -3 0.9 -1.3 0 -2.4 0.5 -2.4 1 0 0.6 -0.9 1 -1.9 1 -1.1 0 -2.3 0.5 -2.6 1 -0.3 0.6 -1.5 1 -2.6 1 -1 0 -2.7 0.4 -3.7 1 -0.9 0.5 -4.3 1.2 -7.4 1.5 -3.2 0.4 -6 1.1 -6.3 1.6 -0.4 0.5 -2.1 0.9 -4 0.9 -1.9 0 -3.6 0.4 -3.9 0.9 -0.7 1.1 -6.7 2.1 -16.9 2.7 -4.2 0.3 -7.5 0.9 -7.3 1.3 0.3 0.4 -1.5 0.9 -4 0.9 -2.5 0.1 -6.4 0.6 -8.7 1.1 -5.6 1.3 -63.7 1.3 -63.7 0z"></path>
  <path d="M751.9 1457 c-2.7 -1.4 -3.8 -2.8 -4.8 -6.2 -0.8 -2.4 -2 -5.8 -2.8 -7.7 -0.8 -1.8 -2.3 -6.2 -3.4 -9.8 -2.2 -7.9 -2.3 -7.8 10.3 -6.7 l9.3 0.9 4.7 12.5 c2.5 6.9 4.7 14 4.7 15.8 l0.1 3.2 -7.2 -0.1 c-4.9 -0.1 -8.5 -0.7 -10.9 -1.9z"></path>
  <path d="M743 1415.1 c-7.2 -1.5 -9.5 -4.4 -11.2 -14.1 -1.3 -7.8 -2.7 -18.5 -2.4 -18.8 0.2 -0.1 4.8 0.3 10.4 0.9 l10.1 1.2 0.6 4.1 c0.4 2.2 1.5 7.5 2.6 11.8 1 4.2 1.9 9.5 1.9 11.7 l0 4.1 -4.2 -0.1 c-2.4 -0.1 -5.9 -0.4 -7.8 -0.8z"></path>
  <path d="M1386.5 1386.5 c-0.5 -0.2 -3.2 -0.6 -5.9 -1 l-4.8 -0.7 0.5 -5.1 c1.8 -18.7 3.1 -25.7 4.6 -25.7 0.9 0 5.3 0.5 9.9 1.2 l8.3 1.1 -0.2 8.4 c-0.1 4.5 -0.6 8.3 -1 8.3 -0.5 0 -0.9 1.4 -0.9 3.1 0 1.8 -0.5 4.9 -1.2 7 -1 3.6 -1.4 3.9 -4.7 3.8 -2 0 -4 -0.2 -4.6 -0.4z"></path>
  <path d="M733.6 1371.9 c-3.3 -0.5 -6.4 -1.3 -6.8 -1.7 -0.5 -0.5 -1.2 -7.8 -1.5 -16.2 l-0.6 -15.3 3.4 0.6 c1.9 0.3 6.4 0.9 10 1.2 l6.6 0.7 0.6 6.2 c0.4 3.3 0.9 10.5 1.3 15.9 l0.7 9.7 -3.9 -0.1 c-2.2 -0.1 -6.6 -0.5 -9.8 -1z"></path>
  <path d="M1388 1344.4 c-4.1 -0.7 -7.6 -1.3 -7.7 -1.3 -0.2 -0.1 -0.3 -7.1 -0.3 -15.6 0 -17.9 -1.4 -16.3 12.8 -14.3 l8.2 1.1 0 14.4 c0 11.2 -0.3 14.8 -1.4 15.9 -1.7 1.6 -1.5 1.6 -11.6 -0.2z"></path>
  <path d="M729.6 1329.1 c-4.4 -0.5 -5 -0.9 -5.1 -3.1 -0.3 -3.5 1.3 -28.2 1.9 -28.7 0.2 -0.3 4.8 0.1 10.2 0.8 l9.7 1.2 -0.7 10.5 c-0.3 5.8 -0.6 12.7 -0.6 15.4 l0 4.8 -5.2 -0.2 c-2.9 0 -7.5 -0.4 -10.2 -0.7z"></path>
  <path d="M1385 1301.6 l-6.4 -1.1 -1.8 -11.5 c-0.9 -6.3 -1.7 -13.4 -1.8 -15.7 0 -5 0.1 -5 12.3 -3.2 8.7 1.3 9.2 2 10.1 14.4 0.4 4.4 0.9 10.4 1.2 13.3 l0.6 5.2 -3.9 -0.1 c-2.1 -0.1 -6.7 -0.6 -10.3 -1.3z"></path>
  <path d="M732.2 1287.3 l-4.3 -0.4 0.2 -4.7 c0.2 -2.6 0.6 -4.9 1 -5.2 0.4 -0.3 1 -3 1.3 -6 0.4 -3 1 -7.4 1.3 -9.7 0.3 -2.4 0.9 -4.3 1.4 -4.3 0.5 0 0.9 -1.4 0.9 -3.1 0 -1.7 0.4 -3.8 0.9 -4.8 0.6 -1 1.2 -2.8 1.4 -4.2 0.2 -1.3 0.6 -3.1 0.9 -3.9 0.3 -0.8 1.1 -3.5 1.9 -6 0.7 -2.5 1.6 -4.9 1.9 -5.5 0.4 -0.5 1.2 -3 1.9 -5.5 0.7 -2.5 1.9 -6.1 2.8 -8 1.5 -3.1 3.7 -10.1 5 -15.7 0.3 -1.3 0.9 -2.3 1.4 -2.3 0.5 0 0.9 -0.9 0.9 -2 0 -1.1 0.5 -2 1 -2 0.6 0 1 -0.9 1 -2 0 -1.1 0.4 -2 0.8 -2 0.9 0 2 -2.1 4.4 -7.7 0.7 -1.8 1.6 -3.3 2 -3.3 0.5 0 0.8 -1.1 0.8 -2.5 0 -1.4 0.5 -2.5 1 -2.5 0.6 0 1 -0.7 1 -1.5 0 -0.9 0.9 -2.5 2 -3.7 1 -1.1 2.7 -4.1 3.7 -6.5 1 -2.3 2.3 -4.1 2.9 -3.9 0.8 0.3 1 -0.3 0.6 -1.6 -0.3 -1.4 -0.1 -1.9 0.6 -1.4 0.8 0.5 1.2 0 1.2 -1.3 0 -1.2 0.5 -2.1 1 -2.1 0.6 0 1 -0.6 1 -1.3 0 -0.7 0.9 -2.3 2 -3.5 1.1 -1.2 2 -2.6 2 -3.2 0 -0.5 0.3 -1 0.8 -1 0.4 0 1.2 -1 1.7 -2.2 0.6 -1.3 1.7 -2.2 2.4 -2 0.7 0.1 1 -0.2 0.7 -0.7 -0.4 -0.5 0.1 -1.6 0.9 -2.4 0.8 -0.9 1.5 -1.8 1.5 -2.2 0 -0.4 0.6 -1.2 1.3 -1.9 0.6 -0.7 2.1 -2.4 3.1 -3.9 1.1 -1.4 2.4 -2.3 2.9 -2 0.6 0.3 0.7 0.1 0.4 -0.5 -0.9 -1.4 0.3 -4.3 1.4 -3.6 0.5 0.3 0.6 -0.2 0.3 -1 -0.4 -1 -0.1 -1.6 0.7 -1.6 0.8 -0.1 3.2 -2.5 5.4 -5.5 2.2 -3 4.5 -5.5 5 -5.5 0.6 0 2.1 -1.6 3.4 -3.5 1.3 -1.9 2.7 -3.2 3.2 -2.9 0.5 0.3 0.8 0.2 0.7 -0.3 -0.4 -1.2 4.8 -7.3 5.6 -6.6 0.3 0.4 0.6 0 0.6 -0.8 0 -0.8 1.4 -2.5 3.1 -3.9 1.7 -1.4 4.6 -4 6.5 -5.8 1.9 -1.8 3.9 -3 4.4 -2.7 0.5 0.3 0.8 0 0.5 -0.7 -0.2 -0.7 1.1 -2.4 3 -3.8 1.9 -1.4 3.5 -3.1 3.5 -3.9 0 -0.8 0.3 -1.2 0.6 -0.8 0.3 0.3 1.7 -0.5 3 -1.8 1.3 -1.3 3.3 -2.6 4.4 -3 1.1 -0.3 2 -1.1 2 -1.6 0 -0.6 0.4 -0.8 0.8 -0.5 0.5 0.3 1.5 -0.3 2.4 -1.2 1.7 -1.9 3.5 -3.4 9.3 -7.7 2.2 -1.6 4.3 -3.4 4.6 -3.9 0.4 -0.5 1.1 -0.6 1.6 -0.3 0.5 0.3 1.5 0.1 2.3 -0.5 1.2 -0.8 1.2 -0.9 -0.3 -0.4 -1.1 0.3 -1.6 0.2 -1.2 -0.4 0.3 -0.6 1.3 -1 2.1 -1 0.8 0 1.4 -0.4 1.4 -0.8 0 -0.5 2 -1.7 4.4 -2.7 2.5 -1 4.3 -2.1 4.1 -2.5 -0.2 -0.3 1.1 -1.2 2.8 -1.9 1.8 -0.8 4.1 -2.2 5.2 -3.1 1.1 -1 3.1 -2.1 4.5 -2.5 1.4 -0.4 3.7 -1.6 5.2 -2.6 1.4 -1.1 3.4 -1.9 4.3 -1.9 0.9 0 1.3 -0.4 1 -1 -0.4 -0.6 0.5 -1 2 -1 1.7 0 2.4 -0.4 1.9 -1.1 -0.5 -0.8 0.1 -1 1.8 -0.7 1.8 0.3 3 -0.1 3.9 -1.4 0.7 -1 2.1 -1.8 3.1 -1.8 1 0 1.8 -0.4 1.8 -1 0 -0.5 0.9 -1 2 -1 1.1 0 2 -0.5 2 -1.1 0 -0.6 0.6 -0.9 1.4 -0.6 0.8 0.3 2 -0.1 2.6 -0.9 0.7 -0.8 2.3 -1.4 3.6 -1.4 1.3 0 2.4 -0.4 2.4 -0.9 0 -0.6 2 -1.3 4.5 -1.7 2.5 -0.3 4.5 -1 4.5 -1.5 0 -0.5 1.1 -0.9 2.5 -0.9 1.4 0 2.5 -0.4 2.5 -1 0 -0.5 1.1 -1 2.5 -1 1.4 0 2.5 -0.4 2.5 -1 0 -0.5 0.8 -1 1.8 -1 1 0 2.2 -0.4 2.8 -0.9 0.5 -0.5 2.5 -1.1 4.4 -1.2 1.9 -0.2 4 -0.7 4.7 -1.2 0.7 -0.5 1.7 -0.6 2.3 -0.2 0.5 0.3 1 0.2 1 -0.3 0 -1 3.3 -1.7 11.9 -2.9 3 -0.3 3.9 -0.8 3 -1.4 -0.9 -0.6 0 -0.9 2.8 -0.9 2.3 0 4.5 -0.4 4.8 -1 0.3 -0.5 3.3 -1 6.6 -1 3.2 0 5.9 -0.4 5.9 -1 0 -0.5 1 -0.9 2.3 -0.9 1.2 0.1 6.5 -0.4 11.7 -1.1 15.9 -1.9 32.6 -2.5 52.5 -1.9 20 0.7 38.5 2.6 38.5 4 0 0.5 3.2 0.9 7 0.9 4 0 7 0.4 7 1 0 0.6 1.6 1 3.5 1 1.9 0 4.4 0.4 5.7 0.9 3.2 1.2 11.1 3.6 12.3 3.6 0.6 0.1 0.9 0.7 0.7 1.3 -0.2 1 0.3 1 1.8 0.2 1.4 -0.7 2.6 -0.8 3.9 0 1.1 0.5 3.1 1 4.5 1 1.3 0 2.6 0.5 2.8 1 0.3 1 2.2 1.6 8 2.7 1.5 0.3 2.5 0.9 2.2 1.4 -0.3 0.5 0.8 0.9 2.5 0.9 1.6 0 3.3 0.5 3.6 1 0.3 0.6 1.4 1 2.3 1 0.9 0 3 0.7 4.6 1.5 1.5 0.8 3.7 1.5 4.7 1.5 1.1 0 1.9 0.5 1.9 1 0 0.6 0.9 1 2 1 1.1 0 2 0.5 2 1 0 0.6 0.6 1 1.3 1 1.8 0 8.9 3.5 8.3 4.1 -0.2 0.2 0.8 0.5 2.2 0.6 1.5 0 2.8 0.6 3 1.2 0.2 0.6 1.2 1.1 2.3 1.1 1 0 1.9 0.5 1.9 1 0 0.6 0.9 1 1.9 1 1.1 0 2.1 0.3 2.3 0.8 0.4 1 6.4 4.2 7.8 4.2 0.7 0 2 0.8 2.9 1.8 0.9 1 3.7 2.9 6.4 4.2 2.6 1.4 4.7 2.8 4.7 3.1 0 0.4 1.1 1 2.5 1.3 1.4 0.4 2.5 1 2.5 1.5 0 0.5 1.4 1.4 3 2.1 1.7 0.7 3 1.6 3 2 0 0.4 1.2 1.2 2.6 1.8 1.5 0.7 2.2 1.7 1.8 2.4 -0.4 0.7 -0.3 0.8 0.5 0.4 1.2 -0.8 4.4 1.8 3.4 2.8 -0.4 0.3 -0.1 0.6 0.6 0.6 1.6 0 10.2 6.2 15.1 10.8 1.9 1.7 3.8 3.2 4.3 3.2 0.4 0 0.6 0.4 0.3 0.8 -0.2 0.4 0.9 1.4 2.5 2.1 1.6 0.7 2.7 1.7 2.3 2.2 -0.3 0.5 0.7 1.4 2.1 2.1 1.4 0.6 2.4 1.7 2.1 2.4 -0.3 0.8 0 1.1 1 0.7 0.7 -0.3 1.4 0 1.4 0.6 0 0.7 0.8 1.5 1.8 1.8 2.9 1.1 10.3 9.6 9.7 11.1 -0.4 1.2 -0.3 1.3 1 0.2 1.2 -1 1.5 -1 1.5 0.3 0 0.8 2.1 3.5 4.6 5.9 10.9 10.3 14.4 14.1 14.4 15.8 0 0.6 0.5 1 1 1 0.6 0 1 1 1 2.2 0 1.2 0.3 1.9 0.6 1.5 0.7 -0.6 3.4 1.6 3.4 2.8 0 0.3 1.2 2.2 2.6 4 1.4 1.9 2.3 3.9 1.9 4.5 -0.4 0.6 -0.1 0.9 0.7 0.8 0.7 -0.2 1.2 0.2 1.1 0.9 -0.2 0.7 0.3 1 1.1 0.7 1.2 -0.5 2.4 1.6 3 5.1 0.1 0.6 0.7 0.9 1.2 0.8 0.6 -0.1 1.7 1.4 2.4 3.3 0.8 1.8 1.7 3.4 2.2 3.4 0.4 0 0.8 0.7 0.8 1.5 0 0.8 0.5 1.5 1 1.5 0.6 0 1 0.7 1 1.5 0 0.8 0.5 1.5 1 1.5 0.6 0 1 0.7 1 1.5 0 0.8 0.5 1.5 1 1.5 0.6 0 1 0.7 1 1.6 0 0.9 0.8 2.8 1.9 4.2 2 3 6.4 12.1 6.5 13.7 0.1 0.5 1.1 2 2.4 3.4 1.2 1.3 2.2 3.2 2.2 4.2 0 1.1 0.5 1.9 1 1.9 0.6 0 1 0.9 1 2 0 1.1 0.5 2 1 2 0.6 0 1 0.9 1 2 0 1.1 0.5 2 1.2 2 0.6 0 0.8 0.3 0.5 0.7 -0.4 0.3 -0.1 1.3 0.5 2.1 0.7 0.8 1.4 2.6 1.6 4 0.2 1.5 0.7 2.9 1.1 3.2 0.5 0.3 1 2.2 1.3 4.3 l0.4 3.8 -6 -0.7 c-3.4 -0.4 -8.2 -1 -10.9 -1.3 l-4.7 -0.6 -7.1 -15 c-31.5 -66.7 -85.7 -121.5 -151.4 -153 -37.5 -18 -77.2 -28.3 -121 -31.5 -45.7 -3.2 -103.9 8.9 -151 31.5 -64.9 31.1 -119.4 85.9 -150.5 151 -12 25.1 -23.3 60.6 -26.2 82.1 l-1.2 9.4 -6.1 -0.2 c-3.3 -0.1 -7.9 -0.3 -10.3 -0.5z"></path>
  <path d="M1378.6 1258.6 l-7.8 -1.1 -2.3 -9 c-1.3 -4.9 -2.8 -10.3 -3.4 -11.8 -0.6 -1.6 -1.1 -4.6 -1.1 -6.8 l0 -3.9 6.8 0.1 c10.3 0.2 12.4 0.9 14.4 4.9 0.9 1.9 1.7 4.7 1.8 6.2 0 1.5 0.4 3 1 3.3 0.5 0.3 0.9 2.1 0.8 4 -0.1 1.9 0.4 4 1 4.7 0.5 0.7 1 2.4 0.9 3.8 0 1.4 0.2 3.5 0.7 4.8 0.9 2.6 0.1 2.6 -12.8 0.8z"></path>
 </g>
 <g fill="#004767">
  <path d="M1038.5 1651.4 c-12.6 -0.9 -40.6 -5.7 -55.5 -9.5 -71.1 -18.4 -133.2 -60.1 -177.4 -119.1 -9.8 -13.2 -22 -32.3 -26.9 -42.5 -1.7 -3.5 -3.7 -6.3 -4.4 -6.3 -0.7 0 -1.3 -0.7 -1.3 -1.6 0 -1.6 5.5 -1.6 28.8 0.2 l7.2 0.6 0 7.4 0 7.4 21 0 21 0 0 21.5 0 21.5 29 0 29 0 0 -21.5 0 -21.5 21 0 21 0 0 -9.5 c0 -10.9 -1.6 -9.6 14.5 -11.5 44.2 -5 77.1 -14 90.2 -24.6 5.8 -4.7 8 -8.1 9.8 -15 1.7 -6.8 4.5 -9.6 14 -14.2 26.2 -12.9 84.4 -21.5 154.2 -22.9 l30.2 -0.6 0.3 7.9 0.3 7.9 28.7 0.3 28.7 0.2 0.3 -7.2 0.3 -7.3 8.5 0.3 c9.5 0.3 41 2.9 45.3 3.8 2.8 0.6 3.8 3.4 1.2 3.4 -0.8 0 -1.8 1.6 -2.4 3.8 -0.5 2 -2.1 8.2 -3.5 13.7 -3.7 14.7 -11.7 35.9 -20 53 -46.8 96.8 -136.5 163 -242.6 179 -14.3 2.2 -21.9 2.7 -41 3 -12.9 0.1 -26.2 0.1 -29.5 -0.1z"></path>
  <path d="M783 1460.8 c-9.6 -0.5 -18.1 -1.4 -18.7 -2 -1.8 -1.5 -1.6 -2.6 0.5 -3 1.7 -0.3 1.5 -1.3 -2.5 -12.3 -2.4 -6.6 -5 -12.5 -5.8 -13.1 -0.8 -0.6 -1.5 -1.5 -1.5 -1.9 0 -0.4 6.9 -0.4 15.3 0 8.3 0.4 20.4 1.1 26.7 1.4 l11.5 0.6 0 15.5 0 15.5 -4 0.1 c-2.2 0.1 -11.9 -0.3 -21.5 -0.8z"></path>
  <path d="M951 1441.6 l0 -15.3 7.3 -0.7 c20.2 -1.8 51.8 -7.5 68.2 -12.2 24.8 -7.1 39.5 -18.7 39.5 -31.2 0 -2.5 5.5 -7.4 11.8 -10.6 23.1 -11.6 66.7 -19.2 133 -23.2 l11.2 -0.6 0 7.6 0 7.6 21 0 21 0 0 7.4 c0 9 1.1 8.6 -20.1 8.6 -35.8 0 -82.6 4.1 -115.4 10.1 -45 8.2 -70.5 21.4 -73.1 37.8 -0.4 2.3 -1.5 5.3 -2.6 6.6 -4.1 5.3 -22.2 12 -44.2 16.5 -15.4 3.1 -43.4 7 -50.8 7 l-6.8 0 0 -15.4z"></path>
  <path d="M802 1419.3 c-12.6 -0.5 -41.6 -2.3 -47.3 -2.9 -3.9 -0.5 -5.7 -1.1 -5.7 -2 0 -0.8 0.7 -1.4 1.5 -1.4 1.9 0 1.9 -0.6 -0.4 -9.8 -1.1 -4.3 -2.2 -9.6 -2.6 -11.9 -0.4 -2.7 -1.2 -4.3 -2.1 -4.3 -0.8 0 -1.4 -0.7 -1.4 -1.5 0 -1.8 -0.3 -1.8 20.5 0 19.7 1.7 58.9 3.5 75.2 3.5 l11.3 0 0 15.5 0 15.5 -21.2 -0.2 c-11.7 -0.1 -24.2 -0.3 -27.8 -0.5z"></path>
  <path d="M909 1402.8 l0 -15.4 17.3 -1.2 c56.7 -4.1 101.6 -12.7 122.1 -23.5 7.8 -4.1 14 -10.5 16 -16.4 0.9 -2.5 1.6 -5.4 1.6 -6.3 0 -1.9 5 -6.8 10.1 -9.8 18.8 -11.2 73.1 -21 131.7 -23.8 l14.2 -0.7 0 15.6 0 15.5 -8.7 0.6 c-75.8 5.3 -115.7 13 -140.8 27.1 -9.7 5.4 -17.5 15.1 -17.5 21.8 0 5.3 -7.7 10.4 -23.9 15.7 -21.9 7.1 -69.4 14.1 -107.3 15.7 l-14.8 0.6 0 -15.5z"></path>
  <path d="M1371.9 1384.6 c-0.2 -0.2 -9.2 -1.1 -19.9 -2 -10.7 -0.9 -21.9 -1.9 -24.7 -2.2 l-5.3 -0.5 0 -8.5 0 -8.4 21.3 -0.2 21.2 -0.3 0.3 -4.7 0.3 -4.8 4.7 0 c2.6 0 7.1 0.3 10 0.6 4.3 0.6 5.2 1 5.2 2.6 0 1.3 -0.5 1.8 -1.3 1.5 -1 -0.4 -1.6 1.9 -2.6 9.6 -0.6 5.6 -1.4 11.2 -1.7 12.5 -0.5 1.6 -0.2 2.2 1 2.2 0.9 0 1.6 0.7 1.6 1.5 0 1.1 -1.2 1.5 -4.8 1.5 -2.7 0 -5.1 -0.2 -5.3 -0.4z"></path>
  <path d="M800 1376.9 c-11.3 -0.4 -28.6 -1.5 -38.6 -2.3 -9.9 -0.9 -18.6 -1.6 -19.2 -1.6 -0.7 0 -1.2 -0.9 -1.2 -2 0 -1.4 0.5 -1.8 1.6 -1.3 1.4 0.5 1.6 -0.1 1 -4.3 -0.3 -2.7 -0.8 -8.6 -1.2 -13.1 -0.4 -6.1 -1 -8.3 -2 -8.3 -0.8 0 -1.4 -0.7 -1.4 -1.6 0 -1.4 0.8 -1.6 5.3 -1.1 34.5 4.1 93.5 6.1 135.7 4.7 99.5 -3.3 162.4 -15.2 179.2 -33.9 4 -4.4 6.8 -10.3 6.8 -14.4 0 -2.5 5.8 -7.6 12.9 -11.1 26.1 -13.2 83.9 -21.8 155.9 -23.3 l29.2 -0.6 0 10.4 c0 5.7 0.3 12.7 0.6 15.5 l0.6 5.1 -25.8 0.6 c-86.7 2.2 -152.1 14.4 -173.7 32.5 -5.5 4.5 -9.6 10.7 -10.4 15.7 -1.3 8.6 -11.8 14.5 -36.2 20.4 -48 11.8 -134.6 17.3 -219.1 14z"></path>
  <path d="M1370 1342.1 l-4.5 -0.6 -0.3 -15.9 -0.3 -15.9 6.3 0.7 c13.6 1.4 14.8 1.7 14.8 3.7 0 1.2 -0.5 1.6 -1.5 1.3 -1.3 -0.5 -1.5 1.2 -1.5 11.9 0 10.2 0.3 12.6 1.5 13.1 0.8 0.3 1.5 1 1.5 1.6 0 1.1 -8.3 1.1 -16 0.1z"></path>
  <path d="M785 1334 c-18.6 -1.2 -40 -3 -43.3 -3.6 -2.8 -0.6 -3.8 -3.4 -1.2 -3.4 1.2 0 1.5 -1.4 1.5 -6.4 0 -3.4 0.3 -9.1 0.6 -12.5 0.6 -5.2 0.5 -6.1 -1 -6.1 -0.9 0 -1.6 -0.7 -1.6 -1.5 0 -1.8 0.5 -1.8 20 0 54.6 5 133.4 4.6 190 -1 46.1 -4.6 82.5 -12.6 98.9 -21.8 10.2 -5.7 17.1 -14.7 17.1 -22.4 0 -4.1 9.5 -10.4 22.8 -15.3 43.7 -15.9 140.6 -23.2 236.9 -17.9 32.7 1.8 43.7 3.1 44.1 5.2 0.2 1 -0.3 1.7 -1.2 1.7 -2 0 -2.1 -0.7 1.4 11.2 1.7 5.5 3 10.9 3 12 0 1 0.7 2.1 1.5 2.4 3 1.2 1.4 2.4 -3.2 2.4 -2.7 0 -11.3 -0.7 -19.3 -1.4 -54.4 -5.4 -139.7 -4.6 -192.6 1.9 -64.9 7.9 -100.8 22.6 -104 42.4 -0.9 5.9 -3.5 8.6 -11.7 12.5 -19.5 9.4 -54.6 15.7 -114.7 20.7 -16.6 1.4 -125.4 2 -144 0.9z"></path>
  <path d="M1366 1299.4 c-6.3 -0.8 -18.7 -2 -27.5 -2.7 l-16 -1.2 0 -15.5 0 -15.5 8.5 0.3 c8.4 0.3 36 2.6 45.3 3.8 3.7 0.5 4.7 1.1 4.7 2.5 0 1.3 -0.5 1.7 -1.7 1.2 -1.4 -0.5 -1.5 -0.1 -1 3.3 0.4 2.1 1.2 7.9 1.9 12.8 1 7.1 1.6 9 3 9.4 1 0.2 1.8 1.1 1.8 1.8 0 1.7 -3.3 1.7 -19 -0.2z"></path>
  <path d="M791.5 1291.9 c-17.9 -0.9 -42.8 -2.7 -46.2 -3.5 -2.4 -0.5 -3.2 -3.4 -1 -3.4 0.9 0 1.7 -3.1 2.5 -9.4 1.8 -13 8 -36.3 14.5 -54.1 28.6 -78 87.6 -143.2 162.2 -179 38 -18.2 77.4 -28.4 122.4 -31.6 37.9 -2.6 85.9 4.6 125.1 18.8 45 16.3 83.2 40.6 117.6 74.8 27 27 48.2 56.9 64.3 91 3.9 8.4 7.7 15.1 8.6 15.3 1.5 0.3 2.2 3.2 0.7 3.2 -0.4 0 -8.6 -0.7 -18.2 -1.5 -67.3 -5.6 -144.5 -3.7 -201.2 5 -43 6.6 -69.1 15.8 -81 28.5 -4.4 4.7 -5.7 7.4 -7.3 15.3 -1.2 5.8 -16.9 12.9 -40.7 18.3 -24.7 5.6 -66.7 10.4 -108.8 12.4 -24.3 1.1 -89.3 1.1 -113.5 -0.1z m241.5 -60.9 l0 -21 21 0 21 0 0 -29 0 -29 -21 0 -21 0 0 -21 0 -21 -29 0 -29 0 0 21 0 21 -21 0 -21 0 0 29 0 29 21 0 21 0 0 21 0 21 29 0 29 0 0 -21z"></path>
 </g>
 <g fill="#43c8f5">
  <path d="M848 1512.5 l0 -21.5 -21 0 -21 0 0 -7.5 0 -7.5 -2.9 0 c-3.9 0 -6.1 -0.9 -6.1 -2.6 0 -0.8 1 -1.4 2.5 -1.4 3 0 4 -3 3.1 -9.4 -0.6 -3.8 -0.5 -4.4 1.1 -4.2 1.6 0.1 1.8 -1.1 2.1 -12.2 0.3 -11.9 0.2 -12.4 -1.8 -12.9 -1.6 -0.4 -2 -1.1 -1.6 -2.7 0.3 -1.1 0.6 -3.1 0.6 -4.3 l0 -2.3 21 0 21 0 0 -3.5 c0 -2.4 0.5 -3.5 1.5 -3.5 1.3 0 1.5 -2.1 1.5 -12.5 0 -10.4 -0.2 -12.5 -1.5 -12.5 -1.1 0 -1.5 -1.2 -1.5 -5 l0 -5 35 0 35 0 0 4 c0 2.9 -0.4 4 -1.5 4 -1.3 0 -1.5 2.1 -1.5 12.5 0 10.4 0.2 12.5 1.5 12.5 1.1 0 1.5 1.2 1.5 4.5 l0 4.5 21 0 21 0 0 2.5 c0 1.6 -0.6 2.5 -1.5 2.5 -1.3 0 -1.5 2.1 -1.5 12.5 0 10.4 0.2 12.5 1.5 12.5 1.2 0 1.5 1.6 1.5 8.5 0 6.7 -0.3 8.7 -1.5 9.1 -1.2 0.5 -1.5 2.6 -1.5 10 l0 9.4 -21 0 -21 0 0 21.5 0 21.5 -32 0 -32 0 0 -21.5z"></path>
  <path d="M1261.7 1408.3 c-0.4 -0.3 -0.7 -3.9 -0.7 -8 0 -5.8 -0.3 -7.3 -1.5 -7.3 -1.2 0 -1.5 -1.7 -1.5 -9 0 -7.3 0.3 -9 1.5 -9 1.1 0 1.5 -1.2 1.5 -4.5 l0 -4.5 -21 0 -21 0 0 -7.5 c0 -6 -0.3 -7.5 -1.5 -7.5 -1.2 0 -1.5 -1.6 -1.5 -8.5 0 -6.9 0.3 -8.5 1.5 -8.5 1.3 0 1.5 -2.1 1.5 -12.5 0 -10.4 -0.2 -12.5 -1.5 -12.5 -1.1 0 -1.5 -1.2 -1.5 -5 l0 -5 21 0 21 0 0 -4 c0 -3.1 0.4 -4 1.8 -4 1.5 0 1.7 -1.1 1.4 -12.5 -0.3 -10.1 -0.6 -12.5 -1.8 -12.5 -1 0 -1.4 -1.2 -1.4 -4.5 l0 -4.5 35 0 35 0 0 2.4 c0 1.3 0.3 3.8 0.6 5.6 0.6 2.7 0.4 3.1 -1.2 2.8 -1.8 -0.3 -1.9 0.6 -2.2 12 -0.3 11.8 -0.2 12.4 1.8 12.9 1.7 0.5 2 1.1 1.5 3.4 l-0.7 2.9 21.6 0 21.6 0 0 7.6 c0 6.4 -0.2 7.5 -1.5 7 -1.3 -0.5 -1.5 1.3 -1.5 12 0 10.2 0.3 12.6 1.5 13 2.2 0.9 2.2 17.4 0.1 17.4 -1.1 0 -1.6 1.4 -1.8 4.8 l-0.3 4.7 -21.2 0.3 -21.3 0.2 0 5.5 c0 4.6 0.3 5.5 1.8 5.5 1.5 0 1.7 1.1 1.7 8.8 0 7.3 -0.3 8.9 -1.5 8.8 -1.2 -0.1 -1.6 1.4 -1.8 7.2 l-0.3 7.2 -31.3 0 c-17.2 0 -31.6 -0.3 -31.9 -0.7z"></path>
  <path d="M972 1234 l0 -21 -21 0 -21 0 0 -32 0 -32 21 0 21 0 0 -21 0 -21 32 0 32 0 0 21 0 21 21 0 21 0 0 32 0 32 -21 0 -21 0 0 21 0 21 -32 0 -32 0 0 -21z"></path>
 </g>
 <g fill="#fefefe">
  <path d="M788 1474.9 c-6.3 -0.3 -16 -0.9 -21.5 -1.3 l-10 -0.8 0.1 -3.9 c0.2 -7.4 -0.9 -10.3 -4.6 -12.2 l-3.5 -1.8 5.5 0.5 c3 0.3 14.5 1.1 25.5 1.7 11 0.6 21.5 1.3 23.3 1.5 l3.2 0.5 0 6.7 c0 3.7 -0.4 7.2 -0.8 7.8 -1.1 1.7 -4.7 2 -17.2 1.3z"></path>
  <path d="M954 1463.1 l0 -8.7 11.3 -1.2 c27.4 -2.9 58.1 -9.4 72.3 -15.3 9.6 -4 13.9 -8 14.8 -13.8 3.4 -21.8 45.2 -37.2 121.1 -44.5 17.7 -1.8 50.8 -3.5 72.3 -3.9 l15.2 -0.2 0 8.6 0 8.6 -27.2 0.6 c-78.4 1.8 -142 13.1 -160.6 28.5 -2.4 2 -3.6 4.2 -4.7 8.6 -1.8 6.9 -4 10.3 -9.8 15 -14.1 11.4 -46.1 19.7 -100.4 25.9 l-4.3 0.5 0 -8.7z"></path>
  <path d="M768.1 1431.4 c-23.6 -1.8 -28.7 -2.6 -28.2 -4.5 0.1 -0.7 0.4 -2.5 0.4 -3.9 0.1 -1.4 0.5 -2.8 1 -3.1 1.4 -1 -0.8 -4.9 -3.8 -7 l-3 -2.1 4.5 0.6 c21.9 2.7 49.1 4.5 81.8 5.3 l27.2 0.6 0 4.9 0 4.8 -21 0 -21 0 0 3 0 3 -10.2 -0.1 c-5.7 -0.1 -18.1 -0.8 -27.7 -1.5z"></path>
  <path d="M954 1428.1 c0 -0.8 -5.9 -1.1 -21 -1.1 l-21 0 0 -5.8 0 -5.9 12.3 -0.7 c38.9 -2.2 82.9 -8.8 103.8 -15.6 16.2 -5.3 23.9 -10.4 23.9 -15.7 0 -6.7 7.8 -16.4 17.5 -21.8 24.9 -13.9 69 -22.5 139.8 -27 l9.7 -0.6 0 8.5 0 8.5 -5.2 0.5 c-2.9 0.3 -12.9 1 -22.3 1.6 -39.3 2.6 -77.6 9 -98.7 16.6 -14.1 5.1 -23.8 11.4 -23.8 15.6 0 19 -28.1 32.2 -86.5 40.7 -20.4 3 -28.5 3.6 -28.5 2.2z"></path>
  <path d="M1380 1399.5 c-4.7 -0.7 -17.5 -2 -28.5 -3 -11 -0.9 -21.5 -1.9 -23.2 -2.1 l-3.3 -0.5 0 -7.9 c0 -4.3 0.4 -8.1 0.8 -8.4 1.4 -0.9 41.6 2.7 61.5 5.5 l7.7 1.1 0 7 c0 7.3 -1.2 9.9 -4.7 9.7 -1 -0.1 -5.6 -0.7 -10.3 -1.4z"></path>
  <path d="M799 1390.9 c-29.6 -1.3 -67.2 -4.7 -66.5 -6 0.3 -0.4 -0.4 -0.5 -1.5 -0.2 -1.8 0.5 -2 0 -2 -3.5 0 -2.2 -0.7 -5.9 -1.5 -8.2 -1.6 -4.5 -2 -8.3 -0.7 -6.4 1.6 2.5 42.8 6 88 7.6 74.4 2.5 156.2 -3.2 201.3 -14.3 24.4 -5.9 34.9 -11.8 36.2 -20.4 0.8 -5 4.9 -11.2 10.4 -15.7 21.5 -18 86.8 -30.3 173.1 -32.5 l25.2 -0.6 0 5.6 0 5.7 -21 0 -21 0 0 3.4 0 3.4 -11.2 0.7 c-60.8 3.6 -110.3 12.7 -128.7 23.7 -5.1 3 -10.1 7.9 -10.1 9.8 0 4.2 -3.5 11.4 -7.5 15.3 -14.3 14.3 -56.2 24.6 -123.3 30.2 -25.6 2.1 -26.2 2.1 -26.2 -1 l0 -2.5 -32 0 -32 0 0 3.5 0 3.5 -15.7 -0.2 c-8.7 0 -23.7 -0.5 -33.3 -0.9z"></path>
  <path d="M1382.3 1357.6 l-14.3 -2 0 -8.6 0 -8.7 13.8 1.8 c7.5 1 14.7 2.1 16 2.4 2.2 0.5 2.2 0.5 2.2 -11.9 0 -9.3 -0.3 -12.5 -1.3 -12.9 -0.7 -0.3 -7.4 -1.3 -14.8 -2.2 -7.3 -1 -14 -1.9 -14.6 -2.1 -0.9 -0.2 -1.3 -2.3 -1.3 -5.9 l0 -5.5 -21.5 0 -21.5 0 0 -4.6 0 -4.7 11.8 0.7 c12.7 0.7 43.2 3.9 53.9 5.6 5.1 0.8 6.8 0.8 7.4 -0.1 0.9 -1.5 1.8 9.5 2.5 29.9 0.3 10.2 0.2 15.2 -0.6 15.2 -0.6 0 -1 3.1 -1 8 0 5.8 -0.3 8 -1.2 7.8 -0.7 0 -7.7 -1 -15.5 -2.2z"></path>
  <path d="M809 1348.9 c-23 -0.7 -54.3 -3 -73 -5.2 l-10.5 -1.3 0.4 -6.7 c0.1 -3.7 -0.1 -6.7 -0.6 -6.7 -0.5 0 -0.9 -2.1 -0.9 -4.7 -0.1 -2.7 0.1 -3.6 0.3 -2.1 0.5 3.2 0.1 3.1 20.3 5.3 32.1 3.4 46.9 4 104.5 4 57.6 0 70.4 -0.5 105.5 -4.1 39.8 -4.1 69.8 -10.3 85.7 -18 8.2 -3.9 10.8 -6.6 11.7 -12.5 2.7 -17.1 30.1 -30.5 79.1 -38.8 35.5 -6 63.9 -8.1 118.3 -8.8 49.5 -0.6 76.2 0.3 109.7 3.7 34.1 3.5 32.3 3 33.1 10 0.5 4.2 1.4 7.1 3.5 11.2 0.5 1 0.8 3.7 0.8 6 l-0.2 4.3 -0.6 -4.3 c-0.4 -2.3 -1.2 -4.6 -1.7 -5.1 -1.2 -1.1 -30.6 -4.8 -49.9 -6.2 -20.3 -1.4 -19.5 -1.2 -19.5 -5.4 l0 -3.5 -32 0 -32 0 0 2.8 0 2.9 -26.2 0.6 c-70.2 1.7 -127.3 10.4 -152.9 23.3 -7.1 3.5 -12.9 8.6 -12.9 11.1 0 4.1 -2.8 10 -6.8 14.4 -16.7 18.6 -79.8 30.6 -178.2 33.9 -32.2 1.1 -41.2 1.1 -75 -0.1z"></path>
  <path d="M725.3 1307.5 c0 -2.7 0.2 -3.8 0.4 -2.2 0.2 1.5 0.2 3.7 0 5 -0.2 1.2 -0.4 0 -0.4 -2.8z"></path>
  <path d="M799.5 1306.4 c-32.6 -1.9 -63.9 -4.6 -70.8 -6 -2.5 -0.5 -2.7 -0.9 -2.5 -4.5 0.2 -2.1 0.6 -3.9 1.1 -3.9 0.4 0 0.8 -3 0.8 -6.7 0.1 -3.8 0.4 -5.8 0.6 -4.6 0.5 2.8 0.9 2.9 19.3 4.7 29.5 3 43.7 3.7 85 4.3 58.5 0.8 108.5 -1.9 150.5 -8.2 39.5 -5.9 66.3 -15 68 -23.2 1.6 -7.9 2.9 -10.6 7.3 -15.3 11.9 -12.7 38 -21.9 81 -28.5 57 -8.8 139.4 -10.7 206.7 -5 30.6 2.6 30.5 2.6 31.6 4.7 0.5 1 0.7 2.4 0.3 3 -0.5 0.7 -0.3 0.8 0.6 0.3 1 -0.6 1.2 -0.1 0.8 1.8 -0.3 1.5 0 2.8 0.6 3.1 0.6 0.2 0.2 0.5 -0.9 0.5 -1.6 0.1 -1.3 0.7 2 3.5 2.2 1.9 3.8 3.6 3.5 3.8 -0.3 0.3 -7.5 -0.3 -16 -1.3 -98.9 -11.1 -225.6 -4.7 -277.2 14.1 -13.3 4.9 -22.8 11.2 -22.8 15.3 0 7.7 -6.9 16.7 -17.1 22.4 -19.8 11.1 -63.4 19.4 -128.4 24.4 -13.3 1 -111.3 2 -124 1.3z"></path>
  <path d="M1035.8 994.3 c1.2 -0.2 3.2 -0.2 4.5 0 1.2 0.2 0.2 0.4 -2.3 0.4 -2.5 0 -3.5 -0.2 -2.2 -0.4z"></path>
 </g>
</svg><style>@media (prefers-color-scheme: light) { :root { filter: none; } }
@media (prefers-color-scheme: dark) { :root { filter: none; } }
</style></svg>