<?xml version="1.0" encoding="UTF-8" standalone="no"?>
<svg width="442" height="442" viewBox="0 0 442 442" version="1.1" id="svg13" sodipodi:docname="clean_fdp_text.svg" xmlns:inkscape="http://www.inkscape.org/namespaces/inkscape" xmlns:sodipodi="http://sodipodi.sourceforge.net/DTD/sodipodi-0.dtd" xmlns="http://www.w3.org/2000/svg" xmlns:svg="http://www.w3.org/2000/svg">
  <sodipodi:namedview id="namedview13" pagecolor="#ffffff" bordercolor="#000000" borderopacity="0.25" inkscape:showpageshadow="2" inkscape:pageopacity="0.0" inkscape:pagecheckerboard="0" inkscape:deskcolor="#b8b8b8"/>
  <defs id="defs1">
    <clipPath id="innerClip">
      <circle cx="221" cy="221" r="118" id="circle1"/>
    </clipPath>
  </defs>
  <path id="circle2" style="fill:#dedede" d="M 442,221 A 221,221 0 0 1 221,442 221,221 0 0 1 0,221 221,221 0 0 1 221,0 221,221 0 0 1 442,221 Z"/>
  <path id="circle3" style="fill:#e5e5e5" d="M 339,221 A 118,118 0 0 1 221,339 118,118 0 0 1 103,221 118,118 0 0 1 221,103 118,118 0 0 1 339,221 Z"/>
  <g clip-path="url(#innerClip)" fill="#bdbdbd" font-family="DejaVu Sans, Arial, Helvetica, sans-serif" font-weight="700" font-size="40" letter-spacing="5" id="g7">
    <path d="m 143.39844,130.39062 q 0,-5.46874 -1.03516,-7.69531 -1.01562,-2.24609 -3.4375,-2.24609 -2.42187,0 -3.45703,2.24609 -1.03516,2.22657 -1.03516,7.69531 0,5.52735 1.03516,7.79297 1.03516,2.26563 3.45703,2.26563 2.40234,0 3.4375,-2.26563 1.03516,-2.26562 1.03516,-7.79297 z m 7.51953,0.0586 q 0,7.24609 -3.125,11.1914 -3.125,3.92579 -8.86719,3.92579 -5.76172,0 -8.88672,-3.92579 -3.125,-3.94531 -3.125,-11.1914 0,-7.26563 3.125,-11.19141 3.125,-3.94531 8.88672,-3.94531 5.74219,0 8.86719,3.94531 3.125,3.92578 3.125,11.19141 z m 11.60156,9.35547 h 6.64063 v -18.84766 l -6.81641,1.40625 v -5.11719 l 6.77734,-1.40625 h 7.14844 v 23.96485 h 6.64063 V 145 h -20.39063 z m 46.54297,-9.41407 q 0,-5.46874 -1.03516,-7.69531 -1.01562,-2.24609 -3.4375,-2.24609 -2.42187,0 -3.45703,2.24609 -1.03515,2.22657 -1.03515,7.69531 0,5.52735 1.03515,7.79297 1.03516,2.26563 3.45703,2.26563 2.40235,0 3.4375,-2.26563 1.03516,-2.26562 1.03516,-7.79297 z m 7.51953,0.0586 q 0,7.24609 -3.125,11.1914 -3.125,3.92579 -8.86719,3.92579 -5.76172,0 -8.88672,-3.92579 -3.125,-3.94531 -3.125,-11.1914 0,-7.26563 3.125,-11.19141 3.125,-3.94531 8.88672,-3.94531 5.74219,0 8.86719,3.94531 3.125,3.92578 3.125,11.19141 z m 11.60156,9.35547 h 6.64063 v -18.84766 l -6.81641,1.40625 v -5.11719 l 6.77735,-1.40625 h 7.14843 v 23.96485 h 6.64063 V 145 h -20.39063 z m 32.83203,0 h 6.64063 v -18.84766 l -6.81641,1.40625 v -5.11719 l 6.77735,-1.40625 h 7.14843 v 23.96485 h 6.64063 V 145 h -20.39063 z m 46.54297,-9.41407 q 0,-5.46874 -1.03515,-7.69531 -1.01563,-2.24609 -3.4375,-2.24609 -2.42188,0 -3.45703,2.24609 -1.03516,2.22657 -1.03516,7.69531 0,5.52735 1.03516,7.79297 1.03515,2.26563 3.45703,2.26563 2.40234,0 3.4375,-2.26563 1.03515,-2.26562 1.03515,-7.79297 z m 7.51953,0.0586 q 0,7.24609 -3.125,11.1914 -3.125,3.92579 -8.86718,3.92579 -5.76172,0 -8.88672,-3.92579 -3.125,-3.94531 -3.125,-11.1914 0,-7.26563 3.125,-11.19141 3.125,-3.94531 8.88672,-3.94531 5.74218,0 8.86718,3.94531 3.125,3.92578 3.125,11.19141 z" id="text3" aria-label="010110"/>
    <path d="m 116.6875,183.80469 h 6.64063 v -18.84766 l -6.81641,1.40625 v -5.11719 l 6.77734,-1.40625 h 7.14844 v 23.96485 h 6.64062 V 189 H 116.6875 Z m 46.54297,-9.41407 q 0,-5.46875 -1.03516,-7.69531 -1.01562,-2.24609 -3.4375,-2.24609 -2.42187,0 -3.45703,2.24609 -1.03516,2.22656 -1.03516,7.69531 0,5.52735 1.03516,7.79297 1.03516,2.26563 3.45703,2.26563 2.40235,0 3.4375,-2.26563 1.03516,-2.26562 1.03516,-7.79297 z m 7.51953,0.0586 q 0,7.24609 -3.125,11.1914 -3.125,3.92579 -8.86719,3.92579 -5.76172,0 -8.88672,-3.92579 -3.125,-3.94531 -3.125,-11.1914 0,-7.26563 3.125,-11.19141 3.125,-3.94531 8.88672,-3.94531 5.74219,0 8.86719,3.94531 3.125,3.92578 3.125,11.19141 z m 11.60156,9.35547 h 6.64063 v -18.84766 l -6.81641,1.40625 v -5.11719 l 6.77734,-1.40625 h 7.14844 v 23.96485 h 6.64063 V 189 h -20.39063 z m 32.83203,0 h 6.64063 v -18.84766 l -6.81641,1.40625 v -5.11719 l 6.77735,-1.40625 h 7.14843 v 23.96485 h 6.64063 V 189 h -20.39063 z m 46.54297,-9.41407 q 0,-5.46875 -1.03515,-7.69531 -1.01563,-2.24609 -3.4375,-2.24609 -2.42188,0 -3.45704,2.24609 -1.03515,2.22656 -1.03515,7.69531 0,5.52735 1.03515,7.79297 1.03516,2.26563 3.45704,2.26563 2.40234,0 3.4375,-2.26563 1.03515,-2.26562 1.03515,-7.79297 z m 7.51953,0.0586 q 0,7.24609 -3.125,11.1914 -3.125,3.92579 -8.86718,3.92579 -5.76172,0 -8.88672,-3.92579 -3.125,-3.94531 -3.125,-11.1914 0,-7.26563 3.125,-11.19141 3.125,-3.94531 8.88672,-3.94531 5.74218,0 8.86718,3.94531 3.125,3.92578 3.125,11.19141 z m 11.60157,9.35547 h 6.64062 v -18.84766 l -6.81641,1.40625 v -5.11719 l 6.77735,-1.40625 h 7.14844 v 23.96485 h 6.64062 V 189 h -20.39062 z m 46.54296,-9.41407 q 0,-5.46875 -1.03515,-7.69531 -1.01563,-2.24609 -3.4375,-2.24609 -2.42188,0 -3.45703,2.24609 -1.03516,2.22656 -1.03516,7.69531 0,5.52735 1.03516,7.79297 1.03515,2.26563 3.45703,2.26563 2.40234,0 3.4375,-2.26563 1.03515,-2.26562 1.03515,-7.79297 z m 7.51954,0.0586 q 0,7.24609 -3.125,11.1914 -3.125,3.92579 -8.86719,3.92579 -5.76172,0 -8.88672,-3.92579 -3.125,-3.94531 -3.125,-11.1914 0,-7.26563 3.125,-11.19141 3.125,-3.94531 8.88672,-3.94531 5.74219,0 8.86719,3.94531 3.125,3.92578 3.125,11.19141 z" id="text4" aria-label="1011010"/>
    <path d="m 113.39844,218.39062 q 0,-5.46875 -1.03516,-7.69531 -1.01562,-2.24609 -3.4375,-2.24609 -2.42187,0 -3.45703,2.24609 -1.03516,2.22656 -1.03516,7.69531 0,5.52735 1.03516,7.79297 1.03516,2.26563 3.45703,2.26563 2.40235,0 3.4375,-2.26563 1.03516,-2.26562 1.03516,-7.79297 z m 7.51953,0.0586 q 0,7.24609 -3.125,11.1914 -3.125,3.92579 -8.86719,3.92579 -5.76172,0 -8.88672,-3.92579 -3.124998,-3.94531 -3.124998,-11.1914 0,-7.26563 3.124998,-11.19141 3.125,-3.94531 8.88672,-3.94531 5.74219,0 8.86719,3.94531 3.125,3.92578 3.125,11.19141 z m 11.60156,9.35547 h 6.64063 v -18.84766 l -6.81641,1.40625 v -5.11719 l 6.77734,-1.40625 h 7.14844 v 23.96485 h 6.64063 V 233 h -20.39063 z m 46.54297,-9.41407 q 0,-5.46875 -1.03516,-7.69531 -1.01562,-2.24609 -3.4375,-2.24609 -2.42187,0 -3.45703,2.24609 -1.03515,2.22656 -1.03515,7.69531 0,5.52735 1.03515,7.79297 1.03516,2.26563 3.45703,2.26563 2.40235,0 3.4375,-2.26563 1.03516,-2.26562 1.03516,-7.79297 z m 7.51953,0.0586 q 0,7.24609 -3.125,11.1914 -3.125,3.92579 -8.86719,3.92579 -5.76172,0 -8.88672,-3.92579 -3.125,-3.94531 -3.125,-11.1914 0,-7.26563 3.125,-11.19141 3.125,-3.94531 8.88672,-3.94531 5.74219,0 8.86719,3.94531 3.125,3.92578 3.125,11.19141 z m 11.60156,9.35547 h 6.64063 v -18.84766 l -6.81641,1.40625 v -5.11719 l 6.77735,-1.40625 h 7.14843 v 23.96485 h 6.64063 V 233 h -20.39063 z m 46.54297,-9.41407 q 0,-5.46875 -1.03515,-7.69531 -1.01563,-2.24609 -3.4375,-2.24609 -2.42188,0 -3.45704,2.24609 -1.03515,2.22656 -1.03515,7.69531 0,5.52735 1.03515,7.79297 1.03516,2.26563 3.45704,2.26563 2.40234,0 3.4375,-2.26563 1.03515,-2.26562 1.03515,-7.79297 z m 7.51953,0.0586 q 0,7.24609 -3.125,11.1914 -3.125,3.92579 -8.86718,3.92579 -5.76172,0 -8.88672,-3.92579 -3.125,-3.94531 -3.125,-11.1914 0,-7.26563 3.125,-11.19141 3.125,-3.94531 8.88672,-3.94531 5.74218,0 8.86718,3.94531 3.125,3.92578 3.125,11.19141 z m 11.60157,9.35547 h 6.64062 v -18.84766 l -6.81641,1.40625 v -5.11719 l 6.77735,-1.40625 h 7.14844 v 23.96485 h 6.64062 V 233 h -20.39062 z m 46.54296,-9.41407 q 0,-5.46875 -1.03515,-7.69531 -1.01563,-2.24609 -3.4375,-2.24609 -2.42188,0 -3.45703,2.24609 -1.03516,2.22656 -1.03516,7.69531 0,5.52735 1.03516,7.79297 1.03515,2.26563 3.45703,2.26563 2.40234,0 3.4375,-2.26563 1.03515,-2.26562 1.03515,-7.79297 z m 7.51954,0.0586 q 0,7.24609 -3.125,11.1914 -3.125,3.92579 -8.86719,3.92579 -5.76172,0 -8.88672,-3.92579 -3.125,-3.94531 -3.125,-11.1914 0,-7.26563 3.125,-11.19141 3.125,-3.94531 8.88672,-3.94531 5.74219,0 8.86719,3.94531 3.125,3.92578 3.125,11.19141 z m 11.60156,9.35547 h 6.64062 v -18.84766 l -6.8164,1.40625 v -5.11719 l 6.77734,-1.40625 h 7.14844 v 23.96485 h 6.64062 V 233 h -20.39062 z" id="text5" aria-label="01010101"/>
    <path d="m 116.6875,271.80469 h 6.64063 v -18.84766 l -6.81641,1.40625 v -5.11719 l 6.77734,-1.40625 h 7.14844 v 23.96485 h 6.64062 V 277 H 116.6875 Z m 46.54297,-9.41407 q 0,-5.46875 -1.03516,-7.69531 -1.01562,-2.24609 -3.4375,-2.24609 -2.42187,0 -3.45703,2.24609 -1.03516,2.22656 -1.03516,7.69531 0,5.52735 1.03516,7.79297 1.03516,2.26563 3.45703,2.26563 2.40235,0 3.4375,-2.26563 1.03516,-2.26562 1.03516,-7.79297 z m 7.51953,0.0586 q 0,7.24609 -3.125,11.1914 -3.125,3.92579 -8.86719,3.92579 -5.76172,0 -8.88672,-3.92579 -3.125,-3.94531 -3.125,-11.1914 0,-7.26563 3.125,-11.19141 3.125,-3.94531 8.88672,-3.94531 5.74219,0 8.86719,3.94531 3.125,3.92578 3.125,11.19141 z m 11.60156,9.35547 h 6.64063 v -18.84766 l -6.81641,1.40625 v -5.11719 l 6.77734,-1.40625 h 7.14844 v 23.96485 h 6.64063 V 277 h -20.39063 z m 32.83203,0 h 6.64063 v -18.84766 l -6.81641,1.40625 v -5.11719 l 6.77735,-1.40625 h 7.14843 v 23.96485 h 6.64063 V 277 h -20.39063 z m 46.54297,-9.41407 q 0,-5.46875 -1.03515,-7.69531 -1.01563,-2.24609 -3.4375,-2.24609 -2.42188,0 -3.45704,2.24609 -1.03515,2.22656 -1.03515,7.69531 0,5.52735 1.03515,7.79297 1.03516,2.26563 3.45704,2.26563 2.40234,0 3.4375,-2.26563 1.03515,-2.26562 1.03515,-7.79297 z m 7.51953,0.0586 q 0,7.24609 -3.125,11.1914 -3.125,3.92579 -8.86718,3.92579 -5.76172,0 -8.88672,-3.92579 -3.125,-3.94531 -3.125,-11.1914 0,-7.26563 3.125,-11.19141 3.125,-3.94531 8.88672,-3.94531 5.74218,0 8.86718,3.94531 3.125,3.92578 3.125,11.19141 z m 11.60157,9.35547 h 6.64062 v -18.84766 l -6.81641,1.40625 v -5.11719 l 6.77735,-1.40625 h 7.14844 v 23.96485 h 6.64062 V 277 h -20.39062 z m 46.54296,-9.41407 q 0,-5.46875 -1.03515,-7.69531 -1.01563,-2.24609 -3.4375,-2.24609 -2.42188,0 -3.45703,2.24609 -1.03516,2.22656 -1.03516,7.69531 0,5.52735 1.03516,7.79297 1.03515,2.26563 3.45703,2.26563 2.40234,0 3.4375,-2.26563 1.03515,-2.26562 1.03515,-7.79297 z m 7.51954,0.0586 q 0,7.24609 -3.125,11.1914 -3.125,3.92579 -8.86719,3.92579 -5.76172,0 -8.88672,-3.92579 -3.125,-3.94531 -3.125,-11.1914 0,-7.26563 3.125,-11.19141 3.125,-3.94531 8.88672,-3.94531 5.74219,0 8.86719,3.94531 3.125,3.92578 3.125,11.19141 z" id="text6" aria-label="1011010"/>
    <path d="m 146.39844,306.39062 q 0,-5.46875 -1.03516,-7.69531 -1.01562,-2.24609 -3.4375,-2.24609 -2.42187,0 -3.45703,2.24609 -1.03516,2.22656 -1.03516,7.69531 0,5.52735 1.03516,7.79297 1.03516,2.26563 3.45703,2.26563 2.40234,0 3.4375,-2.26563 1.03516,-2.26562 1.03516,-7.79297 z m 7.51953,0.0586 q 0,7.24609 -3.125,11.1914 -3.125,3.92579 -8.86719,3.92579 -5.76172,0 -8.88672,-3.92579 -3.125,-3.94531 -3.125,-11.1914 0,-7.26563 3.125,-11.19141 3.125,-3.94531 8.88672,-3.94531 5.74219,0 8.86719,3.94531 3.125,3.92578 3.125,11.19141 z m 11.60156,9.35547 h 6.64063 v -18.84766 l -6.81641,1.40625 v -5.11719 l 6.77734,-1.40625 h 7.14844 v 23.96485 h 6.64063 V 321 h -20.39063 z m 46.54297,-9.41407 q 0,-5.46875 -1.03516,-7.69531 -1.01562,-2.24609 -3.4375,-2.24609 -2.42187,0 -3.45703,2.24609 -1.03515,2.22656 -1.03515,7.69531 0,5.52735 1.03515,7.79297 1.03516,2.26563 3.45703,2.26563 2.40235,0 3.4375,-2.26563 1.03516,-2.26562 1.03516,-7.79297 z m 7.51953,0.0586 q 0,7.24609 -3.125,11.1914 -3.125,3.92579 -8.86719,3.92579 -5.76172,0 -8.88672,-3.92579 -3.125,-3.94531 -3.125,-11.1914 0,-7.26563 3.125,-11.19141 3.125,-3.94531 8.88672,-3.94531 5.74219,0 8.86719,3.94531 3.125,3.92578 3.125,11.19141 z m 25.3125,-0.0586 q 0,-5.46875 -1.03516,-7.69531 -1.01562,-2.24609 -3.4375,-2.24609 -2.42187,0 -3.45703,2.24609 -1.03515,2.22656 -1.03515,7.69531 0,5.52735 1.03515,7.79297 1.03516,2.26563 3.45703,2.26563 2.40235,0 3.4375,-2.26563 1.03516,-2.26562 1.03516,-7.79297 z m 7.51953,0.0586 q 0,7.24609 -3.125,11.1914 -3.125,3.92579 -8.86719,3.92579 -5.76171,0 -8.88671,-3.92579 -3.125,-3.94531 -3.125,-11.1914 0,-7.26563 3.125,-11.19141 3.125,-3.94531 8.88671,-3.94531 5.74219,0 8.86719,3.94531 3.125,3.92578 3.125,11.19141 z m 11.60156,9.35547 h 6.64063 v -18.84766 l -6.81641,1.40625 v -5.11719 l 6.77735,-1.40625 h 7.14843 v 23.96485 h 6.64063 V 321 h -20.39063 z m 32.83204,0 h 6.64062 v -18.84766 l -6.81641,1.40625 v -5.11719 l 6.77735,-1.40625 h 7.14844 v 23.96485 h 6.64062 V 321 h -20.39062 z" id="text7" aria-label="010011"/>
  </g>
  <g fill="none" stroke="#c6c6c6" stroke-width="18" stroke-linecap="butt" id="g8">
    <path id="circle7" d="M 356,221 A 135,135 0 0 1 221,356 135,135 0 0 1 86,221 135,135 0 0 1 221,86 135,135 0 0 1 356,221 Z"/>
  </g>
  <g fill="#c6c6c6" id="g13">
    <path id="rect8" d="m 218,82 h 7 v 278 h -7 z"/>
    <path id="rect9" d="m 82,218 h 278 v 7 H 82 Z"/>
    <path id="rect10" d="m 218,73 h 7 v 27 h -7 z"/>
    <path id="rect11" d="m 218,342 h 7 v 27 h -7 z"/>
    <path id="rect12" d="m 73,218 h 27 v 7 H 73 Z"/>
    <path id="rect13" d="m 342,218 h 27 v 7 h -27 z"/>
  </g>
  <path d="m 109,193.01562 h 48.70312 v 13.64063 H 127.04688 V 219.6875 H 155.875 v 13.64062 H 127.04688 V 263 H 109 Z m 96.625,13.64063 v 42.70312 h 6.46875 q 11.0625,0 16.875,-5.48437 5.85937,-5.48438 5.85937,-15.9375 0,-10.40625 -5.8125,-15.84375 -5.8125,-5.4375 -16.92187,-5.4375 z m -18.04688,-13.64063 h 19.03125 q 15.9375,0 23.71875,2.29688 7.82813,2.25 13.40625,7.6875 4.92188,4.73437 7.3125,10.92187 2.39063,6.1875 2.39063,14.01563 0,7.92187 -2.39063,14.15625 -2.39062,6.1875 -7.3125,10.92187 -5.625,5.4375 -13.5,7.73438 -7.875,2.25 -23.625,2.25 h -19.03125 z m 92.6875,0 h 29.95313 q 13.35937,0 20.48437,5.95313 7.17188,5.90625 7.17188,16.875 0,11.01562 -7.17188,16.96875 -7.125,5.90625 -20.48437,5.90625 H 298.3125 V 263 h -18.04688 z m 18.04688,13.07813 v 19.54687 h 9.98437 q 5.25,0 8.10938,-2.53125 2.85937,-2.57812 2.85937,-7.26562 0,-4.6875 -2.85937,-7.21875 -2.85938,-2.53125 -8.10938,-2.53125 z" id="text13" style="font-weight:800;font-size:96px;font-family:'DejaVu Sans', Arial, Helvetica, sans-serif;letter-spacing:13;text-anchor:middle;fill:#8f8f8f" aria-label="FDP"/>
</svg>