<?xml version="1.0" encoding="UTF-8" ?>
<!DOCTYPE svg PUBLIC "-//W3C//DTD SVG 1.1//EN" "http://www.w3.org/Graphics/SVG/1.1/DTD/svg11.dtd">
<svg width="303pt" height="304pt" viewBox="0 0 303 304" version="1.1" xmlns="http://www.w3.org/2000/svg">
<g id="#ffffffff">
<path fill="#ffffff" opacity="1.00" d=" M 161.21 10.01 C 169.20 23.04 174.51 37.50 179.25 51.96 C 180.39 51.82 181.04 51.18 181.20 50.06 C 184.04 38.59 184.92 26.66 183.25 14.95 C 185.59 25.11 184.97 35.66 183.46 45.89 C 182.85 49.92 181.23 53.78 181.14 57.89 C 181.34 61.85 182.52 65.67 183.16 69.58 C 185.46 83.74 185.83 98.42 182.63 112.47 C 178.79 131.10 169.09 147.80 158.11 163.08 C 149.21 176.08 139.57 188.75 133.13 203.22 C 125.18 220.26 122.96 239.64 125.45 258.18 C 126.63 267.35 130.14 276.08 135.02 283.88 C 119.19 273.61 103.82 261.45 93.96 245.06 C 82.72 226.61 78.70 203.91 82.85 182.73 C 88.24 158.41 100.48 136.11 115.34 116.32 C 125.65 103.03 137.75 91.20 147.52 77.48 C 153.66 68.67 158.48 58.76 160.40 48.13 C 163.06 35.60 162.57 22.67 161.21 10.01 Z" />
<path fill="#ffffff" opacity="1.00" d=" M 105.02 105.02 C 112.11 99.12 118.77 92.69 126.21 87.23 C 108.09 108.17 89.51 129.49 78.07 155.00 C 73.05 165.94 71.02 178.00 71.17 189.99 C 70.61 209.22 75.93 228.28 84.73 245.27 C 87.36 250.50 91.10 255.05 93.95 260.15 C 88.01 256.18 83.57 250.43 78.71 245.28 C 63.74 227.88 53.53 205.25 55.02 181.95 C 57.31 158.71 69.94 137.51 86.48 121.47 C 92.54 115.86 98.86 110.53 105.02 105.02 Z" />
<path fill="#ffffff" opacity="1.00" d=" M 195.39 91.77 C 197.49 94.38 199.13 97.33 200.66 100.30 C 211.83 121.58 218.92 145.09 220.66 169.09 C 222.30 187.36 220.26 206.21 213.13 223.21 C 211.56 227.27 209.49 231.13 208.30 235.33 C 215.88 231.74 221.70 225.34 227.04 219.03 C 230.74 214.84 233.21 209.79 235.97 204.98 C 235.78 211.66 233.99 218.14 232.39 224.58 C 227.65 242.06 218.93 259.09 204.62 270.62 C 190.71 282.24 172.77 287.93 154.94 289.64 C 153.11 289.73 151.26 289.84 149.45 289.51 C 147.41 287.31 146.25 284.49 144.98 281.82 C 139.01 268.77 134.98 254.47 135.83 240.01 C 136.52 227.60 139.50 214.94 146.73 204.65 C 159.01 186.41 172.53 168.80 181.84 148.75 C 186.58 138.14 190.74 127.20 193.07 115.78 C 194.87 107.91 194.78 99.79 195.39 91.77 Z" />
</g>
</svg>
