<?xml version="1.0" encoding="UTF-8" ?>
<!DOCTYPE svg PUBLIC "-//W3C//DTD SVG 1.1//EN" "http://www.w3.org/Graphics/SVG/1.1/DTD/svg11.dtd">
<svg width="216pt" height="216pt" viewBox="0 0 216 216" version="1.1" xmlns="http://www.w3.org/2000/svg">
<g id="#ffffffff">
</g>
<g id="#ffffffff">
<path fill="#ffffffff" opacity="1.00" d=" M 203.45 10.46 C 207.17 8.50 212.47 11.65 211.90 16.00 C 212.19 18.44 210.37 20.23 208.82 21.81 C 191.57 38.90 174.50 56.17 157.24 73.26 C 156.37 74.25 154.40 75.77 155.93 77.08 C 162.32 83.01 168.57 89.10 174.81 95.20 C 178.55 98.50 176.40 103.94 174.90 107.84 C 172.73 112.62 172.37 118.10 169.69 122.64 C 168.26 125.18 164.94 125.20 162.46 124.51 C 159.65 122.74 157.58 120.08 155.20 117.80 C 135.86 98.48 116.56 79.10 97.18 59.82 C 94.86 57.39 91.34 54.95 92.13 51.09 C 91.98 48.25 94.45 46.59 96.83 45.79 C 102.03 43.62 107.30 41.61 112.61 39.73 C 115.37 38.69 118.82 38.73 120.81 41.19 C 128.89 49.44 136.98 57.69 144.88 66.10 C 145.95 67.39 147.36 66.03 148.18 65.21 C 164.47 48.82 180.86 32.54 197.16 16.16 C 199.19 14.19 201.00 11.93 203.45 10.46 Z" />
<path fill="#ffffffff" opacity="1.00" d=" M 77.44 58.44 C 79.99 57.18 82.99 58.18 84.82 60.18 C 107.99 83.34 131.13 106.54 154.34 129.66 C 155.46 130.91 156.89 132.21 156.79 134.05 C 157.00 138.81 156.82 143.66 155.62 148.30 C 153.14 159.40 149.26 170.35 142.83 179.82 C 135.24 191.28 125.46 201.35 114.24 209.29 C 111.64 211.42 107.44 211.50 105.20 208.80 C 90.32 194.01 75.49 179.17 60.40 164.60 C 42.02 146.32 23.63 128.04 5.21 109.80 C 1.98 107.14 2.34 101.13 6.41 99.47 C 12.84 96.74 19.99 96.18 26.37 93.28 C 31.40 90.92 36.80 89.42 41.71 86.80 C 52.66 81.34 62.93 74.25 71.07 65.06 C 73.14 62.82 74.77 60.03 77.44 58.44 M 66.62 85.64 C 53.31 96.27 37.23 102.66 21.09 107.63 C 22.77 110.60 25.49 112.74 27.86 115.13 C 31.62 118.76 35.14 122.63 39.06 126.08 C 41.55 125.43 43.95 124.53 46.31 123.50 C 50.97 121.51 56.25 120.63 60.20 117.24 C 63.63 114.63 65.60 110.64 68.78 107.80 C 72.48 105.21 78.50 108.33 77.90 113.00 C 77.47 118.00 73.29 121.60 69.99 124.99 C 64.31 130.66 56.47 132.97 49.10 135.55 C 50.25 137.16 51.60 138.61 53.06 139.94 C 59.95 146.38 66.29 153.44 73.26 159.76 C 77.08 159.63 80.29 157.07 83.93 156.13 C 89.20 154.67 94.36 152.15 97.73 147.69 C 100.24 144.88 102.37 140.11 106.92 140.98 C 111.28 141.38 113.17 146.65 111.14 150.20 C 107.32 156.83 101.31 162.23 94.34 165.41 C 90.83 167.09 86.79 167.55 83.56 169.84 C 91.66 178.61 100.42 186.76 108.86 195.20 C 110.44 197.45 112.60 195.15 114.05 194.03 C 123.61 185.75 132.08 175.91 137.50 164.40 C 141.34 156.45 144.45 147.89 144.46 138.95 C 144.71 136.89 142.92 135.61 141.72 134.25 C 121.33 114.10 101.26 93.63 80.82 73.54 C 76.12 77.62 71.71 82.02 66.62 85.64 Z" />
</g>
</svg>
